<svg xmlns="http://www.w3.org/2000/svg" viewBox="0 0 170 50" width="170" height="50">
	<defs>
		<linearGradient id="grd1" gradientUnits="userSpaceOnUse"  x1="149.171" y1="5.519" x2="129.405" y2="19.844">
			<stop offset="0" stop-color="#429cd6"  />
			<stop offset="1" stop-color="#ecf8fe"  />
		</linearGradient>
		<linearGradient id="grd2" gradientUnits="userSpaceOnUse"  x1="148.346" y1="4.377" x2="128.581" y2="18.702">
			<stop offset="0" stop-color="#429cd6"  />
			<stop offset="1" stop-color="#ecf8fe"  />
		</linearGradient>
		<linearGradient id="grd3" gradientUnits="userSpaceOnUse"  x1="147.715" y1="3.502" x2="127.95" y2="17.827">
			<stop offset="0" stop-color="#429cd6"  />
			<stop offset="1" stop-color="#ecf8fe"  />
		</linearGradient>
		<linearGradient id="grd4" gradientUnits="userSpaceOnUse"  x1="147.29" y1="2.912" x2="127.524" y2="17.237">
			<stop offset="0" stop-color="#429cd6"  />
			<stop offset="1" stop-color="#ecf8fe"  />
		</linearGradient>
		<linearGradient id="grd5" gradientUnits="userSpaceOnUse"  x1="147.077" y1="2.618" x2="127.312" y2="16.943">
			<stop offset="0" stop-color="#429cd6"  />
			<stop offset="1" stop-color="#ecf8fe"  />
		</linearGradient>
		<linearGradient id="grd6" gradientUnits="userSpaceOnUse"  x1="147.079" y1="2.62" x2="127.314" y2="16.946">
			<stop offset="0" stop-color="#429cd6"  />
			<stop offset="1" stop-color="#ecf8fe"  />
		</linearGradient>
		<linearGradient id="grd7" gradientUnits="userSpaceOnUse"  x1="147.295" y1="2.919" x2="127.53" y2="17.245">
			<stop offset="0" stop-color="#429cd6"  />
			<stop offset="1" stop-color="#ecf8fe"  />
		</linearGradient>
		<linearGradient id="grd8" gradientUnits="userSpaceOnUse"  x1="147.724" y1="3.514" x2="127.959" y2="17.84">
			<stop offset="0" stop-color="#429cd6"  />
			<stop offset="1" stop-color="#ecf8fe"  />
		</linearGradient>
		<linearGradient id="grd9" gradientUnits="userSpaceOnUse"  x1="148.359" y1="4.393" x2="128.593" y2="18.719">
			<stop offset="0" stop-color="#429cd6"  />
			<stop offset="1" stop-color="#ecf8fe"  />
		</linearGradient>
	</defs>
	<style>
		tspan { white-space:pre }
		.shp0 { fill: #429cd6 } 
		.shp1 { fill: #414042 } 
		.shp2 { fill: url(#grd1) } 
		.shp3 { fill: url(#grd2) } 
		.shp4 { fill: url(#grd3) } 
		.shp5 { fill: url(#grd4) } 
		.shp6 { fill: url(#grd5) } 
		.shp7 { fill: url(#grd6) } 
		.shp8 { fill: url(#grd7) } 
		.shp9 { fill: url(#grd8) } 
		.shp10 { fill: url(#grd9) } 
	</style>
	<g id="Layer_1_copy">
		<g id="Layer">
			<g id="Layer">
				<path id="Layer" class="shp0" d="M144.39 25.52C144.39 27.57 143.72 28.96 142.41 29.69C141.59 30.12 140.37 30.36 138.75 30.36L136.44 30.36C135.21 30.36 134.38 30.52 133.95 30.85C133.51 31.17 133.29 31.82 133.29 32.76L133.29 34.22L143.97 34.22L143.97 37.1L129.81 37.1L129.81 32.76C129.81 30.87 130.27 29.48 131.21 28.55C131.72 28.06 132.31 27.75 133.01 27.6C133.42 27.51 134.11 27.47 135.09 27.47L137.77 27.47C138.71 27.47 139.36 27.35 139.75 27.1C140.3 26.78 140.57 26.28 140.57 25.63C140.57 24.25 139.63 23.55 137.77 23.55L130.08 23.55L130.08 20.67L138.5 20.67C140.62 20.67 142.12 21.05 142.96 21.8C143.93 22.65 144.39 23.89 144.39 25.52Z" />
				<path id="Layer" fill-rule="evenodd" class="shp0" d="M160.86 34.23L158.7 34.23L158.7 37.09L155.22 37.09L155.22 34.23L144.89 34.23L144.89 30.77L154.12 20.66L158.7 20.66L158.7 31.35L160.86 31.35L160.86 34.23ZM155.22 31.35L155.22 24.3L148.77 31.35L155.22 31.35Z" />
			</g>
		</g>
		<g id="Layer">
			<path id="Layer" fill-rule="evenodd" class="shp1" d="M42.81 28.99C42.81 31.6 42.01 33.66 40.42 35.16C38.81 36.67 36.62 37.42 33.84 37.42C31.14 37.42 29.02 36.65 27.49 35.11C25.95 33.58 25.17 31.46 25.17 28.78C25.17 26.15 25.96 24.06 27.55 22.5C29.14 20.96 31.28 20.18 33.97 20.18C36.76 20.18 38.92 20.96 40.47 22.5C42.04 24.04 42.81 26.22 42.81 28.99ZM38.12 28.81C38.12 25.44 36.72 23.76 33.9 23.76C31.21 23.76 29.87 25.44 29.87 28.81C29.87 32.16 31.25 33.84 34.04 33.84C36.76 33.84 38.12 32.16 38.12 28.81Z" />
			<path id="Layer" class="shp1" d="M58.47 37.17L52.2 37.17C50.52 37.17 49.2 36.99 48.21 36.65C47.22 36.31 46.35 35.71 45.59 34.86C44.15 33.27 43.42 31.19 43.42 28.63C43.42 25.72 44.28 23.52 46 22.06C47.27 20.96 49.34 20.41 52.2 20.41L58.47 20.41L58.47 23.99L52.99 23.99C51.27 23.99 50.03 24.36 49.27 25.11C48.51 25.86 48.13 27.06 48.13 28.74C48.13 30.44 48.55 31.67 49.4 32.45C50.24 33.21 51.61 33.59 53.5 33.59L58.47 33.59L58.47 37.17Z" />
			<path id="Layer" class="shp1" d="M75.52 31.91C75.52 32.95 75.26 33.92 74.75 34.84C74.23 35.75 73.59 36.38 72.81 36.73C72.15 37.04 70.91 37.19 69.09 37.19L59.6 37.19L59.6 33.61L67.74 33.61C68.82 33.61 69.54 33.58 69.9 33.54C70.65 33.44 71.03 32.99 71.03 32.16C71.03 31.42 70.73 30.94 70.15 30.71C69.82 30.6 69.2 30.53 68.26 30.53L65.46 30.53C63.54 30.53 62.14 30.19 61.24 29.49C59.99 28.51 59.35 27.1 59.35 25.3C59.35 23.54 59.99 22.17 61.27 21.2C61.95 20.67 63.19 20.41 64.97 20.41L74.76 20.41L74.76 23.99L66.59 23.99C65.69 23.99 65.1 24.03 64.83 24.13C64.3 24.33 64.04 24.78 64.04 25.46C64.04 26.24 64.37 26.73 65.01 26.94C65.35 27.05 66.03 27.12 67.03 27.12L69.75 27.12C71.59 27.12 73 27.53 74.01 28.36C75.02 29.19 75.52 30.37 75.52 31.91Z" />
			<path id="Layer" fill-rule="evenodd" class="shp1" d="M83.84 37.17C82.32 37.17 81.37 37.16 81 37.13C79.89 37.02 79.02 36.73 78.4 36.27C77.13 35.33 76.49 33.96 76.49 32.17C76.49 31.02 76.77 30.01 77.33 29.13C77.89 28.24 78.62 27.65 79.53 27.35C80.31 27.1 81.56 26.97 83.3 26.97L88.92 26.97L88.92 26.69C88.92 25.66 88.67 24.95 88.17 24.56C87.67 24.17 86.75 23.98 85.44 23.98L77.7 23.98L77.7 20.4L85.44 20.4C87.22 20.4 88.4 20.45 89 20.57C90.24 20.81 91.24 21.37 92.02 22.25C93.02 23.43 93.53 25.25 93.53 27.72L93.53 37.17L83.84 37.17ZM88.92 30.56L82.88 30.56C81.74 30.56 81.18 31.08 81.18 32.1C81.18 33.09 81.99 33.58 83.64 33.58L88.92 33.58L88.92 30.56Z" />
			<path id="Layer" class="shp1" d="M109.97 37.17L103.7 37.17C102.03 37.17 100.71 36.99 99.72 36.65C98.72 36.31 97.85 35.71 97.09 34.86C95.65 33.27 94.93 31.19 94.93 28.63C94.93 25.72 95.78 23.52 97.5 22.06C98.78 20.96 100.84 20.41 103.7 20.41L109.97 20.41L109.97 23.99L104.49 23.99C102.78 23.99 101.54 24.36 100.78 25.11C100.01 25.86 99.63 27.06 99.63 28.74C99.63 30.44 100.06 31.67 100.9 32.45C101.74 33.21 103.12 33.59 105.01 33.59L109.97 33.59L109.97 37.17L109.97 37.17Z" />
			<path id="Layer" class="shp1" d="M127.81 37.17L123.23 37.17L123.23 27.64C123.23 26.15 123.01 25.16 122.59 24.7C122.17 24.23 121.3 23.99 119.97 23.99L116.28 23.99L116.28 37.16L111.7 37.16L111.7 14.21L116.28 14.21L116.28 20.4L120.97 20.4C123.43 20.4 125.2 20.87 126.25 21.84C127.3 22.81 127.83 24.43 127.83 26.69L127.83 37.17L127.81 37.17Z" />
		</g>
		<g id="Layer">
			<g id="Layer">
				<path id="Layer" class="shp1" d="M23.88 36.76L10.43 36.76C4.88 36.76 0.37 32.23 0.37 26.65C0.37 21.08 4.88 16.54 10.43 16.54L16.13 16.54L16.13 17.96L10.43 17.96C5.66 17.96 1.77 21.87 1.77 26.67C1.77 31.46 5.66 35.37 10.43 35.37L22.47 35.37L22.47 0.27L23.88 0.27L23.88 36.76Z" />
			</g>
			<g id="Layer">
				<path id="Layer" class="shp1" d="M16.09 34.56L10.8 34.56C6.46 34.56 2.92 31.01 2.92 26.65C2.92 22.3 6.46 18.74 10.8 18.74L16.09 18.74L16.09 19.45L10.8 19.45C6.84 19.45 3.63 22.69 3.63 26.65C3.63 30.63 6.85 33.85 10.8 33.85L16.09 33.85L16.09 34.56L16.09 34.56Z" />
			</g>
			<g id="Layer">
				<path id="Layer" class="shp1" d="M16.22 33.16L11.08 33.16C7.51 33.16 4.61 30.23 4.61 26.65C4.61 23.06 7.52 20.15 11.08 20.15L16.22 20.15L16.22 20.86L11.08 20.86C7.9 20.86 5.32 23.46 5.32 26.65C5.32 29.85 7.9 32.45 11.08 32.45L16.22 32.45L16.22 33.16Z" />
			</g>
			<g id="Layer">
				<path id="Layer" class="shp1" d="M16.14 31.73L11.27 31.73C8.46 31.73 6.17 29.44 6.17 26.61C6.17 23.78 8.46 21.49 11.27 21.49L16.14 21.49L16.14 22.2L11.27 22.2C8.85 22.2 6.87 24.18 6.87 26.63C6.87 29.07 8.84 31.05 11.27 31.05L16.14 31.05L16.14 31.73Z" />
			</g>
			<g id="Layer">
				<path id="Layer" class="shp1" d="M20.67 0.41L21.38 0.41L21.38 34.17L20.67 34.17L20.67 0.41Z" />
			</g>
			<g id="Layer">
				<path id="Layer" class="shp1" d="M19.16 0.41L19.87 0.41L19.87 34.17L19.16 34.17L19.16 0.41Z" />
			</g>
			<g id="Layer">
				<path id="Layer" class="shp1" d="M17.68 0.41L18.39 0.41L18.39 34.17L17.68 34.17L17.68 0.41Z" />
			</g>
		</g>
		<path id="Layer" class="shp0" d="" />
		<g id="Layer">
			<path id="Layer" class="shp0" d="M150.01 7.39C159.19 8.21 166.41 15.98 166.41 25.42C166.41 35.41 158.33 43.52 148.39 43.52C145.89 43.52 143.48 43.02 141.21 42.04L140.28 44.17C142.84 45.29 145.57 45.86 148.39 45.86C159.6 45.86 168.72 36.69 168.72 25.44C168.72 14.82 160.6 6.07 150.28 5.1L150.01 7.39Z" />
			<g id="Layer">
				<g id="Layer">
					<path id="Layer" class="shp0" d="M144.05 38.91L133.77 38.55L138.61 47.68L144.05 38.91Z" />
				</g>
			</g>
			<g id="Layer">
				<path id="Layer" class="shp2" d="M149.07 7.34L147.49 7.34L147.4 5L149.16 5L149.07 7.34Z" />
				<path id="Layer" class="shp3" d="M146.57 7.4L145 7.62L144.58 5.31L146.34 5.07L146.57 7.4Z" />
				<path id="Layer" class="shp4" d="M144.09 7.81L142.58 8.25L141.85 6.02L143.55 5.55L144.09 7.81Z" />
				<path id="Layer" class="shp5" d="M141.71 8.57L140.27 9.22L139.24 7.12L140.84 6.39L141.71 8.57Z" />
				<path id="Layer" class="shp6" d="M139.44 9.66L138.11 10.49L136.79 8.57L138.3 7.62L139.44 9.66Z" />
				<path id="Layer" class="shp7" d="M137.36 11.04L136.15 12.06L134.57 10.33L135.93 9.19L137.36 11.04Z" />
				<path id="Layer" class="shp8" d="M135.48 12.7L134.42 13.89L132.63 12.39L133.81 11.08L135.48 12.7Z" />
				<path id="Layer" class="shp9" d="M133.85 14.62L132.97 15.94L130.98 14.71L131.97 13.24L133.85 14.62Z" />
				<path id="Layer" class="shp10" d="M132.5 16.75L131.81 18.17L129.68 17.23L130.45 15.63L132.5 16.75Z" />
			</g>
		</g>
	</g>
</svg>